<svg width="35" height="35" viewBox="0 0 35 35" fill="none" xmlns="http://www.w3.org/2000/svg">
<path d="M17.5 2.91663C15.5849 2.91663 13.6885 3.29384 11.9192 4.02672C10.1499 4.7596 8.5422 5.8338 7.18802 7.18799C4.45311 9.92289 2.91666 13.6322 2.91666 17.5C2.91666 21.3677 4.45311 25.077 7.18802 27.8119C8.5422 29.1661 10.1499 30.2403 11.9192 30.9732C13.6885 31.7061 15.5849 32.0833 17.5 32.0833C21.3677 32.0833 25.0771 30.5468 27.812 27.8119C30.5469 25.077 32.0833 21.3677 32.0833 17.5C32.0833 15.5848 31.7061 13.6885 30.9732 11.9192C30.2404 10.1498 29.1661 8.54217 27.812 7.18799C26.4578 5.8338 24.8501 4.7596 23.0808 4.02672C21.3115 3.29384 19.4151 2.91663 17.5 2.91663ZM10.3104 26.6583C10.9375 25.3458 14.7583 24.0625 17.5 24.0625C20.2417 24.0625 24.0625 25.3458 24.6896 26.6583C22.6466 28.2851 20.1115 29.1696 17.5 29.1666C14.7875 29.1666 12.2937 28.2333 10.3104 26.6583ZM26.775 24.5437C24.6896 22.0062 19.6292 21.1458 17.5 21.1458C15.3708 21.1458 10.3104 22.0062 8.22499 24.5437C6.67379 22.5233 5.83305 20.0472 5.83332 17.5C5.83332 11.0687 11.0687 5.83329 17.5 5.83329C23.9312 5.83329 29.1667 11.0687 29.1667 17.5C29.1667 20.1541 28.2625 22.6041 26.775 24.5437ZM17.5 8.74996C14.6708 8.74996 12.3958 11.025 12.3958 13.8541C12.3958 16.6833 14.6708 18.9583 17.5 18.9583C20.3292 18.9583 22.6042 16.6833 22.6042 13.8541C22.6042 11.025 20.3292 8.74996 17.5 8.74996ZM17.5 16.0416C16.9198 16.0416 16.3634 15.8112 15.9532 15.4009C15.543 14.9907 15.3125 14.4343 15.3125 13.8541C15.3125 13.274 15.543 12.7176 15.9532 12.3073C16.3634 11.8971 16.9198 11.6666 17.5 11.6666C18.0801 11.6666 18.6365 11.8971 19.0468 12.3073C19.457 12.7176 19.6875 13.274 19.6875 13.8541C19.6875 14.4343 19.457 14.9907 19.0468 15.4009C18.6365 15.8112 18.0801 16.0416 17.5 16.0416Z" fill="#E45258"/>
</svg>
